<?xml version="1.0" encoding="UTF-8" standalone="no"?>
<!DOCTYPE svg PUBLIC "-//W3C//DTD SVG 1.1//EN" "http://www.w3.org/Graphics/SVG/1.1/DTD/svg11.dtd">
<svg width="100%" height="100%" viewBox="0 0 820 820" version="1.1" xmlns="http://www.w3.org/2000/svg" xmlns:xlink="http://www.w3.org/1999/xlink" xml:space="preserve" xmlns:serif="http://www.serif.com/" style="fill-rule:evenodd;clip-rule:evenodd;stroke-linejoin:round;stroke-miterlimit:2;">
    <g id="Background">
        <path d="M669.22,220.633C674.89,233.92 674.783,234.309 674.72,307.5C674.483,584.092 674.944,584.148 673.007,591.342C667.87,610.425 650.563,626.441 627.487,627.068C614.643,627.417 238.339,627.22 204.5,627.202C194.712,627.197 167.054,630.414 150.757,601.355C144.057,589.408 145.317,588.602 145.166,485.501C145.138,465.9 144.823,249.95 145.33,240.49C146.506,218.537 163.458,195.831 192.513,194.93C193.938,194.886 621.625,194.532 628.485,194.831C654.612,195.971 667.254,217.314 669.22,220.633ZM532.5,242.057C517.756,241.897 376.581,242.054 372.499,242.03C360.179,241.958 244.954,241.286 218.491,241.941C201.523,242.362 194.676,256.165 193.942,263.536C193.384,269.137 193.815,522.943 193.853,545.5C193.853,545.775 189.615,573.013 211.625,579.09C218.402,580.961 218.537,580.062 299.501,580.045L578.499,579.887C596.335,579.885 616.826,583.092 624.173,565.349C627.079,558.33 625.973,557.959 626.14,309.501C626.173,259.573 627.752,258.004 618.428,248.571C610.381,240.431 608.741,242.028 532.5,242.057Z" style="fill:rgb(246,249,250);"/>
        <path d="M278.375,407.302C260.181,416.765 242.528,405.984 242.165,386.505C242.058,380.745 241.364,343.5 242.135,314.483C242.767,290.709 264.71,290.566 267.5,290.548C342.853,290.056 343.658,290.503 349.389,293.686C367.691,303.849 366.877,338.538 335.509,338.927C291.979,339.467 289.565,337.627 289.534,341.501C289.139,390.987 292.658,396.821 278.375,407.302Z" style="fill:rgb(245,249,251);"/>
        <path d="M469.384,527.688C452.391,515.501 455.602,491.684 474.488,484.47C482.917,481.25 526.217,484.212 529.664,482.797C531.23,482.154 530.005,457.324 530.498,437.5C531.188,409.68 554.683,409.237 563.32,412.903C580.338,420.125 577.818,440.084 577.819,443.497C577.845,512.361 577.65,512.414 576.437,515.477C569.374,533.317 554.533,531.427 546.5,531.418C478.672,531.336 478.07,532.465 469.384,527.688Z" style="fill:rgb(246,249,250);"/>
    </g>
</svg>
